<svg xmlns="http://www.w3.org/2000/svg" viewBox="0 0 512 512" fill="white">
  <!-- Crossed Bats -->
  <path d="M433.1 12.3c-16.4-16.4-43-16.4-59.4 0L12.3 374.2c-16.4 16.4-16.4 43 0 59.4l66.1 66.1c16.4 16.4 43 16.4 59.4 0L499.7 137.7c16.4-16.4 16.4-43 0-59.4L433.1 12.3z" transform="rotate(-15 256 256)"/>
  <path d="M433.1 12.3c-16.4-16.4-43-16.4-59.4 0L12.3 374.2c-16.4 16.4-16.4 43 0 59.4l66.1 66.1c16.4 16.4 43 16.4 59.4 0L499.7 137.7c16.4-16.4 16.4-43 0-59.4L433.1 12.3z" transform="rotate(15 256 256)"/>
  <!-- Ball -->
  <circle cx="256" cy="180" r="70" stroke="black" stroke-width="4"/>
  <path d="M196 160c10-20 40-20 50 0M266 160c10-20 40-20 50 0" fill="none" stroke="black" stroke-width="4"/>
</svg>
